<svg xmlns="http://www.w3.org/2000/svg" viewBox="0 0 170 220" fill="none">
  <rect width="170" height="220" fill="#ffffff"/>
  <rect x="10" y="10" width="150" height="200" fill="#fafafa" stroke="#e5e5e5" stroke-width="0.5"/>

  <!-- Name -->
  <text x="85" y="30" text-anchor="middle" font-family="Georgia, serif" font-size="12" font-weight="bold" fill="#1a1a1a">John Anderson</text>

  <!-- Contact -->
  <text x="85" y="42" text-anchor="middle" font-family="Georgia, serif" font-size="5" fill="#4a4a4a">john@email.com | (555) 123-4567 | New York, NY</text>

  <!-- Divider -->
  <line x1="20" y1="50" x2="150" y2="50" stroke="#cccccc" stroke-width="0.5"/>

  <!-- Professional Summary -->
  <text x="20" y="60" font-family="Georgia, serif" font-size="6" font-weight="bold" fill="#2c3e50">PROFESSIONAL SUMMARY</text>
  <rect x="20" y="64" width="130" height="3" fill="#e8e8e8" rx="1"/>
  <rect x="20" y="69" width="120" height="3" fill="#e8e8e8" rx="1"/>

  <!-- Divider -->
  <line x1="20" y1="78" x2="150" y2="78" stroke="#cccccc" stroke-width="0.5"/>

  <!-- Experience -->
  <text x="20" y="88" font-family="Georgia, serif" font-size="6" font-weight="bold" fill="#2c3e50">PROFESSIONAL EXPERIENCE</text>

  <text x="20" y="98" font-family="Georgia, serif" font-size="5" font-weight="bold" fill="#1a1a1a">Senior Manager</text>
  <text x="130" y="98" text-anchor="end" font-family="Georgia, serif" font-size="4" fill="#4a4a4a">2020 - Present</text>
  <text x="20" y="104" font-family="Georgia, serif" font-size="4" fill="#4a4a4a">Fortune 500 Company, New York, NY</text>
  <circle cx="24" cy="112" r="1" fill="#4a4a4a"/>
  <rect x="28" y="110" width="110" height="3" fill="#f0f0f0" rx="1"/>
  <circle cx="24" cy="118" r="1" fill="#4a4a4a"/>
  <rect x="28" y="116" width="100" height="3" fill="#f0f0f0" rx="1"/>

  <text x="20" y="130" font-family="Georgia, serif" font-size="5" font-weight="bold" fill="#1a1a1a">Manager</text>
  <text x="130" y="130" text-anchor="end" font-family="Georgia, serif" font-size="4" fill="#4a4a4a">2017 - 2020</text>
  <text x="20" y="136" font-family="Georgia, serif" font-size="4" fill="#4a4a4a">Corporate Solutions Inc.</text>
  <circle cx="24" cy="144" r="1" fill="#4a4a4a"/>
  <rect x="28" y="142" width="105" height="3" fill="#f0f0f0" rx="1"/>

  <!-- Divider -->
  <line x1="20" y1="154" x2="150" y2="154" stroke="#cccccc" stroke-width="0.5"/>

  <!-- Education -->
  <text x="20" y="164" font-family="Georgia, serif" font-size="6" font-weight="bold" fill="#2c3e50">EDUCATION</text>
  <text x="20" y="174" font-family="Georgia, serif" font-size="5" fill="#1a1a1a">MBA, Finance</text>
  <text x="20" y="180" font-family="Georgia, serif" font-size="4" fill="#4a4a4a">Harvard Business School, 2015</text>

  <!-- Divider -->
  <line x1="20" y1="188" x2="150" y2="188" stroke="#cccccc" stroke-width="0.5"/>

  <!-- Skills -->
  <text x="20" y="198" font-family="Georgia, serif" font-size="6" font-weight="bold" fill="#2c3e50">SKILLS</text>
  <text x="20" y="206" font-family="Georgia, serif" font-size="4" fill="#4a4a4a">Strategic Planning, Financial Analysis, Team Leadership, Project Management</text>
</svg>
